<svg width="32" height="32" viewBox="0 0 32 32" fill="none" xmlns="http://www.w3.org/2000/svg">
<path d="M27.1243 28.7637H7.24628C7.13159 28.7637 7.0216 28.7181 6.9405 28.637C6.8594 28.5559 6.81384 28.4459 6.81384 28.3312V1.2973C6.81384 1.18261 6.8594 1.07262 6.9405 0.991525C7.0216 0.910428 7.13159 0.864868 7.24628 0.864868H20.9847C21.0993 0.864778 21.2092 0.910195 21.2904 0.991139L27.4309 7.12692C27.512 7.208 27.5576 7.31797 27.5576 7.43265V28.3312C27.5576 28.3881 27.5464 28.4444 27.5246 28.4969C27.5028 28.5495 27.4709 28.5972 27.4307 28.6373C27.3904 28.6775 27.3427 28.7093 27.2901 28.731C27.2375 28.7527 27.1812 28.7638 27.1243 28.7637ZM7.67871 27.8988H26.6919V7.61081L20.8056 1.72973H7.67871V27.8988Z" fill="#5A6773"/>
<path d="M25.2272 31.1352H4.87567C4.76098 31.1352 4.65099 31.0896 4.56989 31.0085C4.4888 30.9274 4.44324 30.8174 4.44324 30.7027V3.1944C4.44324 3.07971 4.4888 2.96972 4.56989 2.88862C4.65099 2.80752 4.76098 2.76196 4.87567 2.76196H7.24713C7.36182 2.76196 7.47181 2.80752 7.55291 2.88862C7.634 2.96972 7.67956 3.07971 7.67956 3.1944C7.67956 3.30908 7.634 3.41907 7.55291 3.50017C7.47181 3.58127 7.36182 3.62683 7.24713 3.62683H5.3081V30.2703H24.7948V28.3313C24.7948 28.2166 24.8404 28.1066 24.9215 28.0255C25.0026 27.9444 25.1126 27.8988 25.2272 27.8988C25.3419 27.8988 25.4519 27.9444 25.533 28.0255C25.6141 28.1066 25.6597 28.2166 25.6597 28.3313V30.7027C25.6597 30.8174 25.6141 30.9274 25.533 31.0085C25.4519 31.0896 25.3419 31.1352 25.2272 31.1352Z" fill="#5A6773"/>
<path d="M27.1243 7.86509H20.9838C20.8691 7.86509 20.7591 7.81953 20.678 7.73843C20.5969 7.65733 20.5513 7.54734 20.5513 7.43265V1.2973C20.5513 1.18261 20.5969 1.07262 20.678 0.991525C20.7591 0.910428 20.8691 0.864868 20.9838 0.864868C21.0985 0.864868 21.2085 0.910428 21.2896 0.991525C21.3707 1.07262 21.4162 1.18261 21.4162 1.2973V7.00022H27.1243C27.239 7.00022 27.349 7.04578 27.4301 7.12688C27.5112 7.20797 27.5568 7.31797 27.5568 7.43265C27.5568 7.54734 27.5112 7.65733 27.4301 7.73843C27.349 7.81953 27.239 7.86509 27.1243 7.86509Z" fill="#5A6773"/>
<path d="M24.2162 10.6504H10.1544C10.0397 10.6504 9.92969 10.6048 9.8486 10.5237C9.7675 10.4426 9.72194 10.3326 9.72194 10.218C9.72194 10.1033 9.7675 9.99327 9.8486 9.91218C9.92969 9.83108 10.0397 9.78552 10.1544 9.78552H24.2162C24.3309 9.78552 24.4409 9.83108 24.522 9.91218C24.6031 9.99327 24.6487 10.1033 24.6487 10.218C24.6487 10.3326 24.6031 10.4426 24.522 10.5237C24.4409 10.6048 24.3309 10.6504 24.2162 10.6504Z" fill="#5A6773"/>
<path d="M24.2162 14.8143H10.1544C10.0397 14.8143 9.92969 14.7688 9.8486 14.6877C9.7675 14.6066 9.72194 14.4966 9.72194 14.3819C9.72194 14.2672 9.7675 14.1572 9.8486 14.0761C9.92969 13.995 10.0397 13.9495 10.1544 13.9495H24.2162C24.3309 13.9495 24.4409 13.995 24.522 14.0761C24.6031 14.1572 24.6487 14.2672 24.6487 14.3819C24.6487 14.4966 24.6031 14.6066 24.522 14.6877C24.4409 14.7688 24.3309 14.8143 24.2162 14.8143Z" fill="#5A6773"/>
<path d="M17.7297 6.48645H10.1544C10.0397 6.48645 9.92969 6.44089 9.8486 6.35979C9.7675 6.27869 9.72194 6.1687 9.72194 6.05401C9.72194 5.93933 9.7675 5.82934 9.8486 5.74824C9.92969 5.66714 10.0397 5.62158 10.1544 5.62158H17.7297C17.8444 5.62158 17.9544 5.66714 18.0355 5.74824C18.1166 5.82934 18.1621 5.93933 18.1621 6.05401C18.1621 6.1687 18.1166 6.27869 18.0355 6.35979C17.9544 6.44089 17.8444 6.48645 17.7297 6.48645Z" fill="#5A6773"/>
<path d="M17.1853 25.7115C16.33 25.7115 15.494 25.4579 14.7828 24.9827C14.0717 24.5076 13.5174 23.8322 13.1901 23.042C12.8629 22.2519 12.7772 21.3824 12.9441 20.5436C13.1109 19.7047 13.5228 18.9342 14.1275 18.3294C14.7323 17.7247 15.5028 17.3128 16.3417 17.146C17.1805 16.9791 18.05 17.0647 18.8402 17.392C19.6303 17.7193 20.3057 18.2736 20.7809 18.9847C21.256 19.6959 21.5096 20.5319 21.5096 21.3872C21.5084 22.5337 21.0524 23.6329 20.2417 24.4436C19.431 25.2543 18.3318 25.7103 17.1853 25.7115ZM17.1853 17.9277C16.5011 17.9277 15.8322 18.1306 15.2633 18.5108C14.6944 18.8909 14.251 19.4312 13.9892 20.0633C13.7273 20.6954 13.6588 21.391 13.7923 22.0621C13.9258 22.7332 14.2553 23.3496 14.7391 23.8334C15.2229 24.3172 15.8393 24.6467 16.5104 24.7802C17.1815 24.9137 17.8771 24.8452 18.5092 24.5833C19.1413 24.3215 19.6816 23.8781 20.0618 23.3092C20.4419 22.7403 20.6448 22.0714 20.6448 21.3872C20.6437 20.47 20.2789 19.5907 19.6304 18.9421C18.9818 18.2936 18.1025 17.9288 17.1853 17.9277Z" fill="#5A6773"/>
<path d="M16.5116 22.9055C16.4548 22.9056 16.3985 22.8945 16.346 22.8728C16.2935 22.851 16.2459 22.8191 16.2058 22.7788L15.2977 21.8707C15.219 21.7891 15.1754 21.6799 15.1764 21.5665C15.1773 21.4531 15.2228 21.3447 15.303 21.2645C15.3832 21.1843 15.4916 21.1388 15.605 21.1378C15.7184 21.1369 15.8276 21.1804 15.9092 21.2592L16.5098 21.8599L18.3784 19.9957C18.4599 19.9169 18.5692 19.8733 18.6826 19.8743C18.7959 19.8753 18.9044 19.9207 18.9846 20.0009C19.0647 20.0811 19.1102 20.1896 19.1112 20.3029C19.1122 20.4163 19.0686 20.5256 18.9898 20.6071L16.8173 22.7788C16.7773 22.8191 16.7296 22.851 16.6771 22.8728C16.6247 22.8945 16.5684 22.9056 16.5116 22.9055Z" fill="#5A6773"/>
</svg>
