<svg width="22" height="22" viewBox="0 0 22 22" fill="none" xmlns="http://www.w3.org/2000/svg">
<path d="M20.1667 15.345V4.28083C20.1667 3.18083 19.2684 2.365 18.1775 2.45667H18.1225C16.1975 2.62167 13.2734 3.6025 11.6417 4.62917L11.4859 4.73C11.22 4.895 10.78 4.895 10.5142 4.73L10.285 4.5925C8.65337 3.575 5.73837 2.60333 3.81337 2.4475C2.72254 2.35583 1.83337 3.18083 1.83337 4.27167V15.345C1.83337 16.225 2.54837 17.05 3.42837 17.16L3.69421 17.1967C5.68337 17.4625 8.75421 18.4708 10.5142 19.4333L10.5509 19.4517C10.7984 19.5892 11.1925 19.5892 11.4309 19.4517C13.1909 18.48 16.2709 17.4625 18.2692 17.1967L18.5717 17.16C19.4517 17.05 20.1667 16.225 20.1667 15.345Z" stroke="#E1E1E1" stroke-width="1.5" stroke-linecap="round" stroke-linejoin="round"/>
<path d="M11 5.0325V18.7825" stroke="#E1E1E1" stroke-width="1.5" stroke-linecap="round" stroke-linejoin="round"/>
<path d="M7.10413 7.7825H5.04163" stroke="#E1E1E1" stroke-width="1.5" stroke-linecap="round" stroke-linejoin="round"/>
<path d="M7.79163 10.5325H5.04163" stroke="#E1E1E1" stroke-width="1.5" stroke-linecap="round" stroke-linejoin="round"/>
</svg>
