<svg width="32" height="32" viewBox="0 0 32 32" fill="none" xmlns="http://www.w3.org/2000/svg">
<path d="M16 28.3468C15.9377 28.3468 15.8762 28.3334 15.8197 28.3074C15.7631 28.2814 15.7128 28.2436 15.6722 28.1964L0.969514 11.1079C0.91556 11.0452 0.880741 10.9683 0.869192 10.8863C0.857643 10.8044 0.869848 10.7209 0.904358 10.6456C0.938869 10.5704 0.994235 10.5067 1.06389 10.462C1.13354 10.4173 1.21455 10.3936 1.2973 10.3936H30.7027C30.7854 10.3936 30.8664 10.4173 30.9361 10.462C31.0058 10.5067 31.0611 10.5704 31.0956 10.6456C31.1301 10.7209 31.1423 10.8044 31.1308 10.8863C31.1192 10.9683 31.0844 11.0452 31.0305 11.1079L16.3278 28.1964C16.2872 28.2436 16.2369 28.2814 16.1803 28.3074C16.1238 28.3334 16.0622 28.3468 16 28.3468ZM2.24 11.2584L16 27.2515L29.76 11.2584H2.24Z" fill="#5A6773"/>
<path d="M16 28.3468C15.9069 28.3468 15.8163 28.3168 15.7417 28.2611C15.6671 28.2055 15.6124 28.1273 15.5857 28.0381L10.4774 10.9497C10.4581 10.8851 10.4542 10.8169 10.466 10.7505C10.4777 10.6842 10.5048 10.6215 10.5451 10.5675C10.5854 10.5135 10.6378 10.4696 10.698 10.4394C10.7583 10.4092 10.8247 10.3935 10.8921 10.3936H21.1079C21.1753 10.3935 21.2418 10.4092 21.302 10.4394C21.3623 10.4696 21.4146 10.5135 21.4549 10.5675C21.4952 10.6215 21.5223 10.6842 21.534 10.7505C21.5458 10.8169 21.5419 10.8851 21.5226 10.9497L16.4143 28.0381C16.3877 28.1273 16.333 28.2055 16.2583 28.2611C16.1837 28.3168 16.0931 28.3468 16 28.3468ZM11.4724 11.2584L16 26.4044L20.5276 11.2584H11.4724Z" fill="#5A6773"/>
<path d="M30.7027 11.2584H1.2973C1.21902 11.2584 1.14219 11.2372 1.07503 11.1969C1.00787 11.1567 0.952887 11.099 0.915953 11.03C0.879019 10.9609 0.861518 10.8832 0.865316 10.805C0.869115 10.7268 0.89407 10.6511 0.937521 10.586L5.42401 3.84606C5.46346 3.78678 5.51694 3.73815 5.57971 3.7045C5.64247 3.67086 5.71258 3.65324 5.78379 3.6532H26.2162C26.2874 3.65324 26.3575 3.67086 26.4203 3.7045C26.4831 3.73815 26.5366 3.78678 26.576 3.84606L31.0625 10.586C31.1059 10.6511 31.1309 10.7268 31.1347 10.805C31.1385 10.8832 31.121 10.9609 31.0841 11.03C31.0471 11.099 30.9921 11.1567 30.925 11.1969C30.8578 11.2372 30.781 11.2584 30.7027 11.2584ZM2.10466 10.3935H29.8954L25.9849 4.51806H6.01514L2.10466 10.3935Z" fill="#5A6773"/>
<path d="M21.1079 11.2583C21.0408 11.2583 20.9745 11.2427 20.9145 11.2127C20.8545 11.1827 20.8022 11.1391 20.7619 11.0854L15.6541 4.34676C15.5848 4.25501 15.5548 4.1395 15.5707 4.02564C15.5866 3.91178 15.6471 3.8089 15.7388 3.73963C15.8306 3.67036 15.9461 3.64037 16.0599 3.65626C16.1738 3.67216 16.2767 3.73263 16.3459 3.82438L21.1079 10.1098L25.8716 3.82438C25.9059 3.77912 25.9487 3.74106 25.9977 3.71238C26.0468 3.68369 26.1009 3.66493 26.1572 3.65718C26.2134 3.64943 26.2707 3.65284 26.3256 3.66721C26.3806 3.68158 26.4321 3.70663 26.4774 3.74093C26.5227 3.77523 26.5607 3.8181 26.5894 3.86711C26.6181 3.91612 26.6368 3.9703 26.6446 4.02656C26.6523 4.08282 26.6489 4.14005 26.6346 4.19499C26.6202 4.24993 26.5952 4.3015 26.5609 4.34676L21.4525 11.0871C21.4122 11.1403 21.3601 11.1835 21.3003 11.2132C21.2405 11.2429 21.1747 11.2583 21.1079 11.2583Z" fill="#5A6773"/>
<path d="M10.8917 11.2583C10.8246 11.2583 10.7583 11.2427 10.6983 11.2127C10.6383 11.1827 10.586 11.1391 10.5457 11.0854L5.43871 4.34676C5.36944 4.25536 5.33932 4.14018 5.35497 4.02656C5.37062 3.91294 5.43077 3.8102 5.52217 3.74093C5.61358 3.67165 5.72876 3.64153 5.84238 3.65718C5.95599 3.67283 6.05874 3.73298 6.12801 3.82438L10.8917 10.1098L15.6541 3.82438C15.7233 3.73263 15.8262 3.67216 15.9401 3.65626C16.0539 3.64037 16.1695 3.67036 16.2612 3.73963C16.353 3.8089 16.4134 3.91178 16.4293 4.02564C16.4452 4.1395 16.4152 4.25501 16.346 4.34676L11.2359 11.0871C11.1956 11.1402 11.1436 11.1834 11.0839 11.2131C11.0242 11.2428 10.9584 11.2583 10.8917 11.2583Z" fill="#5A6773"/>
</svg>
