<svg width="22" height="22" viewBox="0 0 22 22" fill="none" xmlns="http://www.w3.org/2000/svg">
<path fill-rule="evenodd" clip-rule="evenodd" d="M14.2243 1.31753C15.2938 1.18077 16.3758 1.61812 17.4753 2.65263L17.4766 2.65382C18.5797 3.69707 19.0819 4.75536 19.0066 5.83325C18.9338 6.87481 18.33 7.75638 17.6414 8.4838M17.6414 8.4838L10.1193 16.4457C9.90729 16.6766 9.62175 16.8722 9.35106 17.0169C9.0769 17.1635 8.75976 17.289 8.46204 17.3419L8.45746 17.3427L5.50685 17.8467C4.79133 17.97 4.10521 17.7912 3.61644 17.3277C3.12835 16.8648 2.91267 16.1898 2.99257 15.4707L2.99281 15.4687L3.33345 12.4858C3.37301 12.1891 3.48321 11.868 3.61311 11.5894C3.74254 11.3119 3.91914 11.0176 4.12812 10.7951L4.12946 10.7937L11.6553 2.82786C12.3442 2.10014 13.1908 1.44969 14.2243 1.31753M12.6543 3.77264C12.6542 3.77276 12.6544 3.77252 12.6543 3.77264L5.13029 11.7365C5.13013 11.7367 5.13044 11.7364 5.13029 11.7365C5.05515 11.8167 4.95193 11.9719 4.85926 12.1706C4.76827 12.3657 4.71362 12.5462 4.69724 12.6622L4.35917 15.6226C4.35913 15.6229 4.3591 15.6232 4.35906 15.6235C4.32009 15.9764 4.42976 16.204 4.5626 16.33C4.69487 16.4554 4.92541 16.5516 5.27323 16.4917L5.27428 16.4915L8.2233 15.9878C8.33813 15.967 8.51507 15.9047 8.70276 15.8043C8.89304 15.7026 9.03619 15.5929 9.10784 15.5143L9.11605 15.5053L16.642 7.53953C17.2549 6.89205 17.5955 6.30203 17.6349 5.73737C17.6719 5.20895 17.4546 4.5258 16.5326 3.65355C15.6156 2.79098 14.9241 2.61424 14.3987 2.68143C13.8373 2.75321 13.2669 3.12558 12.6543 3.77264Z" fill="white"/>
<path fill-rule="evenodd" clip-rule="evenodd" d="M10.7933 3.94987C11.1685 3.89142 11.52 4.14817 11.5785 4.52334C11.9241 6.74224 13.725 8.44046 15.9639 8.66597C16.3417 8.70402 16.6171 9.04112 16.579 9.4189C16.541 9.79669 16.2039 10.0721 15.8261 10.034C12.9683 9.74621 10.6625 7.57611 10.2198 4.73501C10.1614 4.35984 10.4181 4.00832 10.7933 3.94987Z" fill="white"/>
<path fill-rule="evenodd" clip-rule="evenodd" d="M2.0625 20.1667C2.0625 19.787 2.3703 19.4792 2.75 19.4792H19.25C19.6297 19.4792 19.9375 19.787 19.9375 20.1667C19.9375 20.5464 19.6297 20.8542 19.25 20.8542H2.75C2.3703 20.8542 2.0625 20.5464 2.0625 20.1667Z" fill="white"/>
</svg>
