<svg width="22" height="22" viewBox="0 0 22 22" fill="none" xmlns="http://www.w3.org/2000/svg">
<path d="M14.2817 11C14.2817 12.815 12.8151 14.2817 11.0001 14.2817C9.18505 14.2817 7.71838 12.815 7.71838 11C7.71838 9.185 9.18505 7.71833 11.0001 7.71833C12.8151 7.71833 14.2817 9.185 14.2817 11Z" stroke="#E1E1E1" stroke-width="1.5" stroke-linecap="round" stroke-linejoin="round"/>
<path d="M11 18.5808C14.2358 18.5808 17.2516 16.6742 19.3508 13.3742C20.1758 12.0817 20.1758 9.90917 19.3508 8.61667C17.2516 5.31667 14.2358 3.41 11 3.41C7.76415 3.41 4.74831 5.31667 2.64915 8.61667C1.82415 9.90917 1.82415 12.0817 2.64915 13.3742C4.74831 16.6742 7.76415 18.5808 11 18.5808Z" stroke="#E1E1E1" stroke-width="1.5" stroke-linecap="round" stroke-linejoin="round"/>
</svg>
