<svg width="32" height="32" viewBox="0 0 32 32" fill="none" xmlns="http://www.w3.org/2000/svg">
<path d="M15.9944 24.4324C14.3613 24.4324 12.7649 23.9482 11.4071 23.0409C10.0493 22.1336 8.99097 20.8441 8.36602 19.3353C7.74108 17.8266 7.57757 16.1664 7.89616 14.5647C8.21475 12.9631 9.00114 11.4918 10.1559 10.3371C11.3106 9.18234 12.7819 8.39595 14.3835 8.07736C15.9852 7.75877 17.6454 7.92228 19.1541 8.54722C20.6629 9.17216 21.9524 10.2305 22.8597 11.5883C23.767 12.9461 24.2513 14.5425 24.2513 16.1756C24.2488 18.3647 23.3782 20.4635 21.8302 22.0114C20.2823 23.5593 18.1835 24.43 15.9944 24.4324ZM15.9944 8.78357C14.5324 8.78357 13.1032 9.2171 11.8876 10.0293C10.672 10.8416 9.72454 11.9961 9.16505 13.3468C8.60557 14.6975 8.45919 16.1838 8.74441 17.6177C9.02963 19.0516 9.73365 20.3687 10.7674 21.4025C11.8012 22.4363 13.1184 23.1403 14.5523 23.4255C15.9862 23.7108 17.4725 23.5644 18.8232 23.0049C20.1739 22.4454 21.3284 21.498 22.1406 20.2823C22.9529 19.0667 23.3864 17.6376 23.3864 16.1756C23.3841 14.2158 22.6046 12.3369 21.2188 10.9512C19.833 9.56539 17.9542 8.78586 15.9944 8.78357Z" fill="#5A6773"/>
<path d="M15.9957 12.2348C14.0784 12.2551 12.1984 11.705 10.5946 10.6543C10.4998 10.5897 10.4346 10.4901 10.4132 10.3775C10.3918 10.2648 10.4161 10.1482 10.4807 10.0534C10.5452 9.95864 10.6448 9.89338 10.7575 9.87201C10.8702 9.85065 10.9867 9.87492 11.0815 9.93949C12.5415 10.893 14.252 11.3909 15.9957 11.37C17.74 11.3912 19.4513 10.8933 20.912 9.93949C21.0068 9.87492 21.1234 9.85065 21.236 9.87201C21.3487 9.89338 21.4483 9.95864 21.5129 10.0534C21.5774 10.1482 21.6017 10.2648 21.5803 10.3775C21.559 10.4901 21.4937 10.5897 21.3989 10.6543C19.7944 11.7053 17.9137 12.2555 15.9957 12.2348Z" fill="#5A6773"/>
<path d="M21.155 22.4865C21.0683 22.4864 20.9837 22.4604 20.912 22.4117C19.4513 21.4579 17.74 20.96 15.9957 20.9812C14.2512 20.96 12.5399 21.458 11.0793 22.4121C10.9845 22.4705 10.8707 22.49 10.7618 22.4666C10.6529 22.4432 10.5572 22.3787 10.4947 22.2865C10.4321 22.1942 10.4076 22.0814 10.4263 21.9716C10.4449 21.8617 10.5052 21.7633 10.5946 21.6968C12.1997 20.6453 14.0813 20.0952 16 20.1163C17.918 20.0956 19.7988 20.6458 21.4032 21.6968C21.4799 21.7491 21.5377 21.8247 21.5681 21.9124C21.5985 22.0001 21.5999 22.0952 21.5721 22.1837C21.5442 22.2723 21.4887 22.3495 21.4136 22.404C21.3385 22.4585 21.2478 22.4874 21.155 22.4865Z" fill="#5A6773"/>
<path d="M15.9944 24.4324C13.3803 24.4324 11.3328 20.8056 11.3328 16.1756C11.3328 11.5455 13.3803 7.9187 15.9944 7.9187C18.6084 7.9187 20.656 11.5459 20.656 16.1756C20.656 20.8052 18.6084 24.4324 15.9944 24.4324ZM15.9944 8.78357C13.9364 8.78357 12.1976 12.1691 12.1976 16.1756C12.1976 20.182 13.9364 23.5676 15.9944 23.5676C18.0523 23.5676 19.7912 20.1825 19.7912 16.1756C19.7912 12.1686 18.0523 8.78357 15.9944 8.78357Z" fill="#5A6773"/>
<path d="M15.9944 24.4324C15.8797 24.4324 15.7697 24.3869 15.6886 24.3058C15.6075 24.2247 15.562 24.1147 15.562 24V8.35113C15.562 8.23645 15.6075 8.12645 15.6886 8.04536C15.7697 7.96426 15.8797 7.9187 15.9944 7.9187C16.1091 7.9187 16.2191 7.96426 16.3002 8.04536C16.3812 8.12645 16.4268 8.23645 16.4268 8.35113V24C16.4268 24.1147 16.3812 24.2247 16.3002 24.3058C16.2191 24.3869 16.1091 24.4324 15.9944 24.4324Z" fill="#5A6773"/>
<path d="M23.8188 16.608H8.16995C8.05526 16.608 7.94527 16.5625 7.86418 16.4814C7.78308 16.4003 7.73752 16.2903 7.73752 16.1756C7.73752 16.0609 7.78308 15.9509 7.86418 15.8698C7.94527 15.7887 8.05526 15.7432 8.16995 15.7432H23.8188C23.9335 15.7432 24.0435 15.7887 24.1246 15.8698C24.2057 15.9509 24.2513 16.0609 24.2513 16.1756C24.2513 16.2903 24.2057 16.4003 24.1246 16.4814C24.0435 16.5625 23.9335 16.608 23.8188 16.608Z" fill="#5A6773"/>
<path d="M16 28.973C15.8853 28.973 15.7753 28.9274 15.6942 28.8463C15.6131 28.7652 15.5676 28.6552 15.5676 28.5405C15.5676 28.4258 15.6131 28.3158 15.6942 28.2348C15.7753 28.1537 15.8853 28.1081 16 28.1081C18.8206 28.1076 21.5526 27.1226 23.7245 25.3229C25.8965 23.5233 27.3721 21.022 27.8968 18.2506C28.4215 15.4792 27.9624 12.6116 26.5986 10.1426C25.2349 7.67356 23.052 5.75801 20.4268 4.72646C20.32 4.68454 20.2343 4.60192 20.1884 4.49678C20.1426 4.39164 20.1404 4.27259 20.1823 4.16581C20.2242 4.05904 20.3068 3.97329 20.412 3.92743C20.5171 3.88157 20.6361 3.87935 20.7429 3.92127C23.5558 5.02638 25.8947 7.07872 27.3559 9.72413C28.8172 12.3695 29.3092 15.4421 28.747 18.4115C28.1848 21.3809 26.6037 24.0609 24.2766 25.9891C21.9494 27.9172 19.0222 28.9726 16 28.973Z" fill="#5A6773"/>
<path d="M11.4162 28.1081C11.3622 28.108 11.3086 28.0977 11.2584 28.0779C8.44386 26.9744 6.10309 24.9226 4.64039 22.2769C3.17768 19.6312 2.68488 16.5577 3.24712 13.5873C3.80935 10.617 5.39131 7.93619 7.71974 6.00808C10.0482 4.07997 12.9769 3.02559 16 3.02704C16.1147 3.02704 16.2247 3.0726 16.3058 3.1537C16.3869 3.23479 16.4324 3.34478 16.4324 3.45947C16.4324 3.57416 16.3869 3.68415 16.3058 3.76525C16.2247 3.84635 16.1147 3.89191 16 3.89191C13.1793 3.89234 10.4471 4.87741 8.27515 6.67713C6.10315 8.47685 4.62751 10.9783 4.1029 13.7498C3.57828 16.5214 4.03759 19.3891 5.40157 21.8581C6.76554 24.3272 8.94862 26.2426 11.5741 27.274C11.6673 27.3111 11.7447 27.3795 11.793 27.4675C11.8414 27.5554 11.8576 27.6575 11.8389 27.7561C11.8203 27.8547 11.7679 27.9438 11.6908 28.008C11.6136 28.0722 11.5166 28.1076 11.4162 28.1081Z" fill="#5A6773"/>
<path d="M14.0541 5.83525C13.9685 5.83523 13.885 5.80986 13.8139 5.76234C13.7428 5.71483 13.6874 5.6473 13.6546 5.56829C13.6219 5.48929 13.6133 5.40235 13.63 5.31848C13.6467 5.23461 13.6879 5.15757 13.7483 5.09709L15.3886 3.45687L13.7483 1.81622C13.6696 1.73466 13.626 1.62543 13.627 1.51205C13.6279 1.39867 13.6734 1.29021 13.7536 1.21003C13.8338 1.12985 13.9422 1.08438 14.0556 1.08339C14.169 1.08241 14.2782 1.12599 14.3598 1.20476L16.3057 3.15071C16.3868 3.2318 16.4324 3.34177 16.4324 3.45644C16.4324 3.57111 16.3868 3.68108 16.3057 3.76217L14.3598 5.70812C14.3197 5.74835 14.272 5.78029 14.2196 5.8021C14.1671 5.82392 14.1109 5.83518 14.0541 5.83525Z" fill="#5A6773"/>
<path d="M17.9459 30.9215C17.8313 30.9215 17.7213 30.8759 17.6402 30.7948L15.6943 28.8488C15.6132 28.7677 15.5677 28.6578 15.5677 28.5431C15.5677 28.4284 15.6132 28.3185 15.6943 28.2374L17.6402 26.2914C17.7218 26.2127 17.831 26.1691 17.9444 26.1701C18.0578 26.171 18.1662 26.2165 18.2464 26.2967C18.3266 26.3769 18.3721 26.4853 18.3731 26.5987C18.374 26.7121 18.3305 26.8213 18.2517 26.9029L16.6115 28.5431L18.2517 30.1838C18.3121 30.2442 18.3533 30.3213 18.37 30.4052C18.3867 30.489 18.3781 30.576 18.3454 30.655C18.3127 30.734 18.2572 30.8015 18.1861 30.849C18.1151 30.8965 18.0315 30.9219 17.9459 30.9219V30.9215Z" fill="#5A6773"/>
</svg>
