<svg width="117" height="33" viewBox="0 0 117 33" fill="none" xmlns="http://www.w3.org/2000/svg">
<path d="M1 12.5422L3.27723 10.416L4.41584 4.64489L5.93399 1L9.34984 4.64489C9.85589 3.63242 10.9439 1.66823 11.2475 1.91122C11.5512 2.15421 13.1452 4.2399 13.9043 5.25237L15.0429 1.91122L20.3564 7.98604L21.8746 17.0983C22.6337 14.9721 24.1518 20.4859 24.1518 20.2429C24.1518 19.9999 24.1518 17.1042 24.1518 15.6868L27.9472 20.2429L31.363 17.2055L33.6403 18.7242L34.7789 14.1681L36.297 16.598L38.1947 13.8643L38.9538 16.598L41.231 15.6868L43.5083 17.813L45.4059 15.383C45.912 16.0918 46.9241 17.4485 46.9241 17.2055C46.9241 16.9625 47.6832 15.8893 48.0627 15.383L50.3399 15.9905L52.9967 13.8643C53.2497 14.2693 53.7558 15.0185 53.7558 14.7755C53.7558 14.5326 54.0088 13.0543 54.1353 12.3456L56.4125 15.9905L59.8284 11.4344L61.3465 14.7755L63.6238 15.383L65.5215 13.8643L67.4191 16.9017L68.5578 15.6868L70.835 17.813L74.2508 17.2055L76.5281 22.3691L78.0462 18.7242L82.2211 14.7755L84.4984 16.598L84.8779 12.9531L87.1551 15.383L90.571 13.8643L92.4687 25.5137L93.2277 18.2239L94.3663 9.41541L97.0231 13.9715L100.059 12.4528L101.198 15.794L103.096 12.4528L104.614 16.4015L106.512 13.364L107.271 14.8827L108.03 13.364L110.686 16.4015L111.066 23.3875L112.584 21.565L114.482 25.5137L116 25.2099" stroke="#F92C2C"/>
<path d="M3.27723 10.416L1 12.5422V33H116V25.2099L114.482 25.5137L112.584 21.565L111.066 23.3875L110.686 16.4015L108.03 13.364L107.271 14.8827L106.512 13.364L104.614 16.4015L103.096 12.4528L101.198 15.794L100.059 12.4528L97.0231 13.9715L94.3663 9.41541L93.2277 18.2239L92.4687 25.5137L90.571 13.8643L87.1551 15.383L84.8779 12.9531L84.4984 16.598L82.2211 14.7755L78.0462 18.7242L76.5281 22.3691L74.2508 17.2055L70.835 17.813L68.5578 15.6868L67.4191 16.9017L65.5215 13.8643L63.6238 15.383L61.3465 14.7755L59.8284 11.4344L56.4125 15.9905L54.1353 12.3456C54.0088 13.0543 53.7558 14.5326 53.7558 14.7755C53.7558 15.0185 53.2497 14.2693 52.9967 13.8643L50.3399 15.9905L48.0627 15.383C47.6832 15.8893 46.9241 16.9625 46.9241 17.2055C46.9241 17.4485 45.912 16.0918 45.4059 15.383L43.5083 17.813L41.231 15.6868L38.9538 16.598L38.1947 13.8643L36.297 16.598L34.7789 14.1681L33.6403 18.7242L31.363 17.2055L27.9472 20.2429L24.1518 15.6868V20.2429C24.1518 20.4859 22.6337 14.9721 21.8746 17.0983L20.3564 7.98604L15.0429 1.91122L13.9043 5.25237C13.1452 4.2399 11.5512 2.15421 11.2475 1.91122C10.9439 1.66823 9.85589 3.63242 9.34984 4.64489L5.93399 1L4.41584 4.64489L3.27723 10.416Z" fill="url(#paint0_linear_1_985)"/>
<defs>
<linearGradient id="paint0_linear_1_985" x1="94.7459" y1="-1.32192" x2="94.7459" y2="27.5335" gradientUnits="userSpaceOnUse">
<stop stop-color="#F92C2C"/>
<stop offset="1" stop-color="#F92C2C" stop-opacity="0"/>
</linearGradient>
</defs>
</svg>
