<svg width="5" height="15" viewBox="0 0 5 15" fill="none" xmlns="http://www.w3.org/2000/svg">
<path d="M2.625 5.78125C1.53125 5.78125 0.65625 6.68359 0.65625 7.75C0.65625 8.84375 1.53125 9.71875 2.625 9.71875C3.69141 9.71875 4.59375 8.84375 4.59375 7.75C4.59375 6.68359 3.69141 5.78125 2.625 5.78125ZM0.65625 2.9375C0.65625 4.03125 1.53125 4.90625 2.625 4.90625C3.69141 4.90625 4.59375 4.03125 4.59375 2.9375C4.59375 1.87109 3.69141 0.96875 2.625 0.96875C1.53125 0.96875 0.65625 1.87109 0.65625 2.9375ZM0.65625 12.5625C0.65625 13.6562 1.53125 14.5312 2.625 14.5312C3.69141 14.5312 4.59375 13.6562 4.59375 12.5625C4.59375 11.4961 3.69141 10.5938 2.625 10.5938C1.53125 10.5938 0.65625 11.4961 0.65625 12.5625Z" fill="#5A6773"/>
</svg>
