<svg width="32" height="32" viewBox="0 0 32 32" fill="none" xmlns="http://www.w3.org/2000/svg">
<g clip-path="url(#clip0_10_213)">
<path d="M16 23.3513C14.546 23.3513 13.1247 22.9202 11.9158 22.1124C10.7069 21.3046 9.76465 20.1565 9.20824 18.8132C8.65184 17.4699 8.50626 15.9918 8.78991 14.5658C9.07356 13.1398 9.77371 11.8299 10.8018 10.8018C11.8299 9.77368 13.1398 9.07353 14.5658 8.78988C15.9918 8.50622 17.47 8.65181 18.8132 9.20821C20.1565 9.76462 21.3046 10.7069 22.1124 11.9158C22.9202 13.1247 23.3513 14.546 23.3513 16C23.3492 17.949 22.574 19.8176 21.1958 21.1958C19.8176 22.5739 17.949 23.3491 16 23.3513ZM16 9.51349C14.7171 9.51349 13.463 9.89391 12.3963 10.6067C11.3296 11.3194 10.4982 12.3325 10.0073 13.5177C9.51633 14.7029 9.38787 16.0072 9.63815 17.2654C9.88844 18.5237 10.5062 19.6795 11.4134 20.5866C12.3205 21.4938 13.4763 22.1115 14.7345 22.3618C15.9928 22.6121 17.297 22.4836 18.4823 21.9927C19.6675 21.5017 20.6806 20.6704 21.3933 19.6037C22.1061 18.537 22.4865 17.2829 22.4865 16C22.4845 14.2802 21.8005 12.6315 20.5845 11.4155C19.3685 10.1995 17.7197 9.51543 16 9.51349Z" fill="#5A6773"/>
<path d="M16 9.51349C15.8853 9.51349 15.7753 9.46793 15.6942 9.38683C15.6131 9.30574 15.5676 9.19574 15.5676 9.08106V4.57641C15.5676 4.46173 15.6131 4.35174 15.6942 4.27064C15.7753 4.18954 15.8853 4.14398 16 4.14398C16.1147 4.14398 16.2247 4.18954 16.3058 4.27064C16.3869 4.35174 16.4324 4.46173 16.4324 4.57641V9.08106C16.4324 9.19574 16.3869 9.30574 16.3058 9.38683C16.2247 9.46793 16.1147 9.51349 16 9.51349Z" fill="#5A6773"/>
<path d="M16 5.00888C15.5902 5.00888 15.1895 4.88733 14.8487 4.65962C14.5079 4.4319 14.2423 4.10824 14.0855 3.72956C13.9287 3.35089 13.8877 2.93421 13.9676 2.53223C14.0476 2.13025 14.245 1.76102 14.5349 1.47123C14.8247 1.18144 15.194 0.984114 15.596 0.904206C15.998 0.824298 16.4147 0.865397 16.7933 1.0223C17.172 1.17921 17.4956 1.44488 17.7232 1.78571C17.9509 2.12654 18.0723 2.52723 18.0722 2.93709C18.0712 3.48632 17.8525 4.01276 17.4641 4.40108C17.0757 4.78941 16.5493 5.00796 16 5.00888ZM16 1.72974C15.7612 1.72974 15.5278 1.80055 15.3292 1.93322C15.1307 2.06588 14.976 2.25444 14.8846 2.47506C14.7932 2.69567 14.7693 2.93843 14.8159 3.17264C14.8624 3.40684 14.9774 3.62197 15.1463 3.79082C15.3151 3.95967 15.5303 4.07466 15.7645 4.12125C15.9987 4.16783 16.2414 4.14392 16.4621 4.05254C16.6827 3.96116 16.8712 3.80641 17.0039 3.60786C17.1366 3.40931 17.2074 3.17588 17.2074 2.93709C17.2065 2.61716 17.079 2.3106 16.8527 2.08437C16.6265 1.85815 16.3199 1.73065 16 1.72974Z" fill="#5A6773"/>
<path d="M11.1079 11.5403C11.0511 11.5404 10.9947 11.5292 10.9422 11.5075C10.8897 11.4857 10.8419 11.4538 10.8017 11.4136L7.61688 8.22834C7.57558 8.18845 7.54263 8.14073 7.51997 8.08797C7.49731 8.03522 7.48538 7.97847 7.48488 7.92105C7.48438 7.86364 7.49532 7.80669 7.51706 7.75355C7.53881 7.7004 7.57092 7.65212 7.61152 7.61152C7.65212 7.57092 7.7004 7.53881 7.75355 7.51706C7.80669 7.49532 7.86364 7.48438 7.92105 7.48488C7.97847 7.48538 8.03522 7.49731 8.08797 7.51997C8.14073 7.54263 8.18845 7.57558 8.22834 7.61688L11.4136 10.8017C11.4742 10.8622 11.5155 10.9393 11.5323 11.0232C11.5491 11.1072 11.5405 11.1942 11.5078 11.2733C11.4751 11.3524 11.4196 11.42 11.3484 11.4675C11.2772 11.5151 11.1935 11.5404 11.1079 11.5403Z" fill="#5A6773"/>
<path d="M6.76282 8.83419C6.35312 8.83415 5.95263 8.71263 5.61198 8.48501C5.27133 8.25738 5.00581 7.93386 4.84901 7.55536C4.6922 7.17685 4.65113 6.76035 4.73101 6.35851C4.81088 5.95666 5.0081 5.58753 5.29774 5.29776C5.53862 5.05653 5.83528 4.87846 6.16144 4.77932C6.4876 4.68018 6.83318 4.66304 7.16755 4.72942C7.50193 4.79579 7.81476 4.94363 8.07832 5.15983C8.34188 5.37604 8.54804 5.65392 8.67851 5.96886C8.80899 6.2838 8.85975 6.62606 8.8263 6.96531C8.79285 7.30456 8.67622 7.63032 8.48675 7.91371C8.29728 8.1971 8.04082 8.42937 7.74011 8.58994C7.4394 8.7505 7.10372 8.8344 6.76282 8.83419ZM6.76282 5.55592C6.6042 5.55543 6.44707 5.58644 6.30053 5.64716C6.154 5.70788 6.02098 5.79711 5.9092 5.90965C5.71182 6.10714 5.58902 6.36695 5.56172 6.64483C5.53442 6.92271 5.60431 7.20145 5.75948 7.43358C5.91465 7.6657 6.1455 7.83685 6.41271 7.91785C6.67992 7.99885 6.96694 7.98471 7.22489 7.87782C7.48283 7.77093 7.69574 7.57791 7.82733 7.33165C7.95892 7.08539 8.00106 6.80112 7.94656 6.52728C7.89207 6.25343 7.74431 6.00696 7.52846 5.82984C7.31262 5.65272 7.04204 5.55591 6.76282 5.55592Z" fill="#5A6773"/>
<path d="M9.08109 16.4324H4.57644C4.46176 16.4324 4.35177 16.3869 4.27067 16.3058C4.18957 16.2247 4.14401 16.1147 4.14401 16C4.14401 15.8853 4.18957 15.7753 4.27067 15.6942C4.35177 15.6131 4.46176 15.5676 4.57644 15.5676H9.08109C9.19578 15.5676 9.30577 15.6131 9.38686 15.6942C9.46796 15.7753 9.51352 15.8853 9.51352 16C9.51352 16.1147 9.46796 16.2247 9.38686 16.3058C9.30577 16.3869 9.19578 16.4324 9.08109 16.4324Z" fill="#5A6773"/>
<path d="M2.93709 18.0722C2.52723 18.0723 2.12654 17.9509 1.78571 17.7232C1.44488 17.4956 1.17921 17.172 1.0223 16.7933C0.865397 16.4147 0.824298 15.998 0.904206 15.596C0.984114 15.194 1.18144 14.8247 1.47123 14.5349C1.76102 14.245 2.13025 14.0476 2.53223 13.9676C2.93421 13.8877 3.35089 13.9287 3.72956 14.0855C4.10824 14.2423 4.4319 14.5079 4.65962 14.8487C4.88733 15.1895 5.00888 15.5902 5.00888 16C5.00796 16.5493 4.78941 17.0757 4.40108 17.4641C4.01276 17.8525 3.48632 18.0712 2.93709 18.0722ZM2.93709 14.7927C2.69828 14.7926 2.46481 14.8633 2.26621 14.9959C2.0676 15.1285 1.91278 15.3171 1.82134 15.5377C1.72989 15.7583 1.70592 16.0011 1.75245 16.2353C1.79899 16.4695 1.91395 16.6847 2.08278 16.8536C2.25161 17.0225 2.46674 17.1375 2.70096 17.1841C2.93517 17.2308 3.17795 17.2069 3.39859 17.1155C3.61923 17.0241 3.80782 16.8694 3.94051 16.6708C4.07319 16.4723 4.14401 16.2388 4.14401 16C4.1431 15.6802 4.01566 15.3737 3.78953 15.1475C3.5634 14.9212 3.25695 14.7937 2.93709 14.7927Z" fill="#5A6773"/>
<path d="M7.92261 24.5099C7.83709 24.5098 7.7535 24.4845 7.68241 24.4369C7.61131 24.3894 7.5559 24.3219 7.52318 24.2429C7.49045 24.1639 7.48189 24.077 7.49857 23.9931C7.51525 23.9092 7.55642 23.8322 7.61688 23.7717L10.8017 20.5864C10.8829 20.5052 10.9929 20.4597 11.1077 20.4597C11.2224 20.4597 11.3325 20.5052 11.4136 20.5864C11.4948 20.6675 11.5404 20.7776 11.5404 20.8923C11.5404 21.0071 11.4948 21.1171 11.4136 21.1983L8.22834 24.3832C8.18829 24.4234 8.14065 24.4554 8.08817 24.4771C8.03569 24.4989 7.97941 24.51 7.92261 24.5099Z" fill="#5A6773"/>
<path d="M6.76324 27.309C6.49107 27.31 6.2214 27.257 5.96985 27.1531C5.71829 27.0492 5.48985 26.8964 5.29773 26.7036C4.95825 26.3649 4.74672 25.9189 4.6992 25.4417C4.65168 24.9646 4.7711 24.4856 5.03711 24.0866C5.30311 23.6876 5.69925 23.3932 6.15802 23.2535C6.61678 23.1139 7.10978 23.1376 7.553 23.3207C7.99622 23.5038 8.36224 23.8349 8.58868 24.2577C8.81512 24.6804 8.88798 25.1685 8.79482 25.639C8.70167 26.1094 8.44828 26.5329 8.07783 26.8375C7.70738 27.142 7.24279 27.3086 6.76324 27.309ZM6.76324 24.0303C6.52447 24.0301 6.29101 24.1007 6.09242 24.2333C5.89383 24.3659 5.73903 24.5544 5.64763 24.7749C5.55623 24.9955 5.53234 25.2383 5.57898 25.4724C5.62561 25.7066 5.74068 25.9217 5.90962 26.0904C6.13955 26.31 6.44528 26.4326 6.76324 26.4326C7.0812 26.4326 7.38693 26.31 7.61686 26.0904C7.7858 25.9217 7.90087 25.7066 7.94751 25.4724C7.99414 25.2383 7.97025 24.9955 7.87885 24.7749C7.78745 24.5544 7.63265 24.3659 7.43406 24.2333C7.23547 24.1007 7.00201 24.0301 6.76324 24.0303Z" fill="#5A6773"/>
<path d="M16 27.856C15.8853 27.856 15.7753 27.8105 15.6942 27.7294C15.6131 27.6483 15.5676 27.5383 15.5676 27.4236V22.9189C15.5676 22.8043 15.6131 22.6943 15.6942 22.6132C15.7753 22.5321 15.8853 22.4865 16 22.4865C16.1147 22.4865 16.2247 22.5321 16.3058 22.6132C16.3869 22.6943 16.4324 22.8043 16.4324 22.9189V27.4236C16.4324 27.5383 16.3869 27.6483 16.3058 27.7294C16.2247 27.8105 16.1147 27.856 16 27.856Z" fill="#5A6773"/>
<path d="M16 31.1352C15.5902 31.1352 15.1895 31.0136 14.8488 30.7859C14.508 30.5582 14.2424 30.2346 14.0855 29.8559C13.9287 29.4773 13.8877 29.0606 13.9676 28.6587C14.0476 28.2567 14.2449 27.8875 14.5347 27.5977C14.8245 27.3079 15.1938 27.1105 15.5957 27.0305C15.9977 26.9506 16.4144 26.9916 16.793 27.1485C17.1717 27.3053 17.4953 27.5709 17.723 27.9117C17.9507 28.2525 18.0722 28.6531 18.0722 29.0629C18.0713 29.6122 17.8527 30.1388 17.4643 30.5272C17.0759 30.9156 16.5493 31.1342 16 31.1352ZM16 27.856C15.7612 27.856 15.5278 27.9268 15.3292 28.0595C15.1306 28.1922 14.9759 28.3808 14.8845 28.6014C14.7932 28.8221 14.7693 29.0649 14.8159 29.2991C14.8625 29.5333 14.9775 29.7484 15.1464 29.9173C15.3153 30.0861 15.5305 30.201 15.7647 30.2476C15.999 30.2941 16.2417 30.2701 16.4623 30.1787C16.683 30.0872 16.8715 29.9324 17.0041 29.7338C17.1367 29.5352 17.2074 29.3018 17.2074 29.0629C17.2069 28.7429 17.0795 28.4361 16.8532 28.2099C16.6269 27.9836 16.32 27.8564 16 27.856Z" fill="#5A6773"/>
<path d="M24.0774 24.5099C24.0206 24.51 23.9643 24.4989 23.9119 24.4771C23.8594 24.4554 23.8117 24.4234 23.7717 24.3832L20.5864 21.1983C20.5052 21.1171 20.4597 21.0071 20.4597 20.8923C20.4597 20.7776 20.5052 20.6675 20.5864 20.5864C20.6675 20.5052 20.7776 20.4597 20.8923 20.4597C21.0071 20.4597 21.1171 20.5052 21.1983 20.5864L24.3831 23.7717C24.4436 23.8322 24.4848 23.9092 24.5015 23.9931C24.5181 24.077 24.5096 24.1639 24.4768 24.2429C24.4441 24.3219 24.3887 24.3894 24.3176 24.4369C24.2465 24.4845 24.1629 24.5098 24.0774 24.5099Z" fill="#5A6773"/>
<path d="M25.2368 27.309C24.7576 27.3085 24.2934 27.1418 23.9232 26.8375C23.5531 26.5331 23.3 26.1098 23.2069 25.6397C23.1139 25.1696 23.1868 24.6818 23.4131 24.2594C23.6394 23.837 24.0051 23.5061 24.448 23.3232C24.8909 23.1402 25.3836 23.1165 25.842 23.256C26.3005 23.3955 26.6963 23.6897 26.9622 24.0884C27.2281 24.4871 27.3475 24.9656 27.3001 25.4425C27.2527 25.9193 27.0414 26.365 26.7023 26.7036C26.5102 26.8963 26.2817 27.0491 26.0302 27.153C25.7786 27.2569 25.5089 27.3099 25.2368 27.309ZM25.2368 24.0303C24.998 24.0301 24.7645 24.1007 24.5659 24.2333C24.3674 24.3658 24.2126 24.5543 24.1212 24.7749C24.0298 24.9955 24.0059 25.2382 24.0525 25.4724C24.0991 25.7066 24.2142 25.9216 24.3831 26.0904C24.6131 26.31 24.9188 26.4325 25.2368 26.4325C25.5547 26.4325 25.8605 26.31 26.0904 26.0904C26.2593 25.9216 26.3744 25.7066 26.421 25.4724C26.4677 25.2382 26.4438 24.9955 26.3524 24.7749C26.261 24.5543 26.1062 24.3658 25.9076 24.2333C25.709 24.1007 25.4755 24.0301 25.2368 24.0303Z" fill="#5A6773"/>
<path d="M27.4236 16.4324H22.9189C22.8042 16.4324 22.6942 16.3869 22.6131 16.3058C22.532 16.2247 22.4865 16.1147 22.4865 16C22.4865 15.8853 22.532 15.7753 22.6131 15.6942C22.6942 15.6131 22.8042 15.5676 22.9189 15.5676H27.4236C27.5383 15.5676 27.6483 15.6131 27.7294 15.6942C27.8104 15.7753 27.856 15.8853 27.856 16C27.856 16.1147 27.8104 16.2247 27.7294 16.3058C27.6483 16.3869 27.5383 16.4324 27.4236 16.4324Z" fill="#5A6773"/>
<path d="M29.0629 18.0722C28.6531 18.0722 28.2524 17.9507 27.9116 17.723C27.5709 17.4953 27.3053 17.1717 27.1484 16.793C26.9916 16.4144 26.9506 15.9977 27.0305 15.5957C27.1105 15.1938 27.3078 14.8245 27.5976 14.5347C27.8874 14.2449 28.2567 14.0476 28.6586 13.9676C29.0606 13.8877 29.4773 13.9287 29.8559 14.0855C30.2346 14.2424 30.5582 14.508 30.7859 14.8488C31.0136 15.1895 31.1351 15.5902 31.1351 16C31.1342 16.5493 30.9156 17.0759 30.5272 17.4643C30.1388 17.8527 29.6122 18.0713 29.0629 18.0722ZM29.0629 14.7927C28.8241 14.7927 28.5907 14.8635 28.3921 14.9961C28.1936 15.1288 28.0388 15.3174 27.9475 15.538C27.8561 15.7586 27.8322 16.0014 27.8788 16.2356C27.9253 16.4698 28.0403 16.6849 28.2092 16.8537C28.378 17.0226 28.5932 17.1376 28.8274 17.1842C29.0616 17.2308 29.3043 17.2068 29.5249 17.1155C29.7456 17.0241 29.9341 16.8693 30.0668 16.6708C30.1995 16.4722 30.2703 16.2388 30.2703 16C30.2699 15.6799 30.1426 15.373 29.9163 15.1467C29.6899 14.9203 29.383 14.793 29.0629 14.7927Z" fill="#5A6773"/>
<path d="M20.8921 11.5403C20.8065 11.5404 20.7228 11.5151 20.6516 11.4675C20.5804 11.42 20.5249 11.3524 20.4922 11.2733C20.4595 11.1942 20.4509 11.1072 20.4677 11.0232C20.4845 10.9393 20.5258 10.8622 20.5864 10.8017L23.7717 7.61688C23.8116 7.57558 23.8593 7.54263 23.912 7.51997C23.9648 7.49731 24.0215 7.48538 24.0789 7.48488C24.1364 7.48438 24.1933 7.49532 24.2465 7.51706C24.2996 7.53881 24.3479 7.57092 24.3885 7.61152C24.4291 7.65212 24.4612 7.7004 24.4829 7.75355C24.5047 7.80669 24.5156 7.86364 24.5151 7.92105C24.5146 7.97847 24.5027 8.03522 24.48 8.08797C24.4574 8.14073 24.4244 8.18845 24.3831 8.22834L21.1983 11.4136C21.1581 11.4538 21.1103 11.4857 21.0578 11.5075C21.0053 11.5292 20.9489 11.5404 20.8921 11.5403Z" fill="#5A6773"/>
<path d="M25.2368 8.83417C24.896 8.83414 24.5606 8.75007 24.2601 8.58942C23.9597 8.42878 23.7035 8.1965 23.5142 7.91318C23.3249 7.62986 23.2085 7.30424 23.1751 6.96516C23.1418 6.62608 23.1926 6.28401 23.323 5.96925C23.4535 5.65449 23.6595 5.37675 23.9229 5.16065C24.1864 4.94455 24.499 4.79675 24.8332 4.73034C25.1674 4.66394 25.5128 4.68098 25.8388 4.77995C26.1648 4.87892 26.4614 5.05677 26.7023 5.29775C26.9922 5.58746 27.1896 5.95665 27.2695 6.3586C27.3495 6.76056 27.3085 7.1772 27.1516 7.55581C26.9947 7.93442 26.729 8.25798 26.3881 8.48553C26.0473 8.71309 25.6466 8.83442 25.2368 8.83417ZM25.2368 5.55591C24.9573 5.55582 24.6865 5.65263 24.4704 5.82985C24.2544 6.00707 24.1064 6.25372 24.0518 6.52779C23.9973 6.80185 24.0394 7.08636 24.1711 7.33283C24.3028 7.5793 24.5158 7.77249 24.774 7.87947C25.0322 7.98644 25.3194 8.00059 25.5869 7.9195C25.8543 7.83841 26.0853 7.6671 26.2406 7.43476C26.3958 7.20242 26.4657 6.92343 26.4383 6.64533C26.411 6.36723 26.288 6.10723 26.0904 5.90964C25.9786 5.7971 25.8456 5.70787 25.6991 5.64715C25.5525 5.58643 25.3954 5.55541 25.2368 5.55591Z" fill="#5A6773"/>
<path d="M16 16.4324C15.5911 16.4324 15.1914 16.3112 14.8514 16.084C14.5114 15.8568 14.2464 15.5339 14.0899 15.1561C13.9334 14.7784 13.8925 14.3627 13.9723 13.9616C14.052 13.5606 14.2489 13.1922 14.5381 12.903C14.8272 12.6139 15.1956 12.417 15.5966 12.3372C15.9977 12.2574 16.4134 12.2984 16.7912 12.4549C17.1689 12.6113 17.4918 12.8763 17.719 13.2163C17.9462 13.5563 18.0674 13.956 18.0674 14.3649C18.0674 14.4796 18.0219 14.5896 17.9408 14.6707C17.8597 14.7518 17.7497 14.7974 17.635 14.7974C17.5203 14.7974 17.4103 14.7518 17.3292 14.6707C17.2481 14.5896 17.2026 14.4796 17.2026 14.3649C17.2026 14.1271 17.132 13.8946 16.9999 13.6968C16.8678 13.4991 16.6799 13.3449 16.4602 13.2539C16.2404 13.1629 15.9986 13.1391 15.7654 13.1855C15.5321 13.2319 15.3178 13.3464 15.1496 13.5146C14.9814 13.6828 14.8669 13.8971 14.8205 14.1303C14.7741 14.3636 14.7979 14.6054 14.8889 14.8252C14.98 15.0449 15.1341 15.2327 15.3319 15.3649C15.5296 15.497 15.7621 15.5675 16 15.5675C16.1147 15.5675 16.2247 15.6131 16.3058 15.6942C16.3869 15.7753 16.4324 15.8853 16.4324 16C16.4324 16.1147 16.3869 16.2247 16.3058 16.3057C16.2247 16.3868 16.1147 16.4324 16 16.4324Z" fill="#5A6773"/>
<path d="M16 19.7025C15.4519 19.7018 14.9264 19.4837 14.5389 19.0962C14.1513 18.7086 13.9332 18.1831 13.9326 17.635C13.9326 17.5203 13.9781 17.4103 14.0592 17.3292C14.1403 17.2481 14.2503 17.2026 14.365 17.2026C14.4797 17.2026 14.5897 17.2481 14.6708 17.3292C14.7519 17.4103 14.7974 17.5203 14.7974 17.635C14.7974 17.8729 14.868 18.1054 15.0001 18.3031C15.1322 18.5009 15.3201 18.655 15.5398 18.7461C15.7596 18.8371 16.0014 18.8609 16.2346 18.8145C16.4679 18.7681 16.6822 18.6536 16.8504 18.4854C17.0186 18.3172 17.1331 18.1029 17.1795 17.8696C17.2259 17.6364 17.2021 17.3946 17.1111 17.1748C17.0201 16.9551 16.8659 16.7672 16.6681 16.6351C16.4704 16.503 16.2379 16.4324 16 16.4324C15.8853 16.4324 15.7753 16.3869 15.6942 16.3058C15.6131 16.2247 15.5676 16.1147 15.5676 16C15.5676 15.8853 15.6131 15.7753 15.6942 15.6942C15.7753 15.6131 15.8853 15.5676 16 15.5676C16.2715 15.5676 16.5404 15.621 16.7912 15.7249C17.042 15.8288 17.27 15.9811 17.4619 16.1731C17.6539 16.3651 17.8062 16.593 17.9101 16.8438C18.014 17.0947 18.0675 17.3635 18.0675 17.635C18.0675 17.9065 18.014 18.1754 17.9101 18.4262C17.8062 18.677 17.6539 18.9049 17.4619 19.0969C17.27 19.2889 17.042 19.4412 16.7912 19.5451C16.5404 19.649 16.2715 19.7025 16 19.7025Z" fill="#5A6773"/>
<path d="M16 20.3892C15.8853 20.3892 15.7753 20.3436 15.6942 20.2625C15.6131 20.1814 15.5676 20.0714 15.5676 19.9567V19.2692C15.5676 19.1545 15.6131 19.0445 15.6942 18.9634C15.7753 18.8823 15.8853 18.8367 16 18.8367C16.1147 18.8367 16.2247 18.8823 16.3058 18.9634C16.3869 19.0445 16.4324 19.1545 16.4324 19.2692V19.9567C16.4324 20.0714 16.3869 20.1814 16.3058 20.2625C16.2247 20.3436 16.1147 20.3892 16 20.3892Z" fill="#5A6773"/>
<path d="M16 13.1633C15.8853 13.1633 15.7753 13.1177 15.6942 13.0366C15.6131 12.9555 15.5676 12.8455 15.5676 12.7308V12.0433C15.5676 11.9286 15.6131 11.8186 15.6942 11.7375C15.7753 11.6564 15.8853 11.6108 16 11.6108C16.1147 11.6108 16.2247 11.6564 16.3058 11.7375C16.3869 11.8186 16.4324 11.9286 16.4324 12.0433V12.7308C16.4324 12.8455 16.3869 12.9555 16.3058 13.0366C16.2247 13.1177 16.1147 13.1633 16 13.1633Z" fill="#5A6773"/>
</g>
<defs>
<clipPath id="clip0_10_213">
<rect width="32" height="32" fill="white"/>
</clipPath>
</defs>
</svg>
