<svg width="14" height="14" viewBox="0 0 14 14" fill="none" xmlns="http://www.w3.org/2000/svg">
<path fill-rule="evenodd" clip-rule="evenodd" d="M9.04007 1C9.04007 0.68934 9.29214 0.4375 9.60308 0.4375H12.9811C13.2921 0.4375 13.5442 0.68934 13.5442 1V4.375C13.5442 4.68566 13.2921 4.9375 12.9811 4.9375C12.6702 4.9375 12.4181 4.68566 12.4181 4.375V2.358L8.87516 5.89775C8.6553 6.11742 8.29882 6.11742 8.07895 5.89775C7.85908 5.67808 7.85908 5.32192 8.07895 5.10225L11.6219 1.5625H9.60308C9.29214 1.5625 9.04007 1.31066 9.04007 1ZM5.87244 8.10225C6.09231 8.32192 6.09231 8.67808 5.87244 8.89775L2.32947 12.4375H4.34831C4.65925 12.4375 4.91132 12.6893 4.91132 13C4.91132 13.3107 4.65925 13.5625 4.34831 13.5625H0.970238C0.820918 13.5625 0.677714 13.5032 0.572129 13.3977C0.466544 13.2923 0.407227 13.1492 0.407227 13L0.407227 9.625C0.407227 9.31434 0.659296 9.0625 0.970238 9.0625C1.28118 9.0625 1.53325 9.31434 1.53325 9.625L1.53325 11.642L5.07622 8.10225C5.29609 7.88258 5.65257 7.88258 5.87244 8.10225Z" fill="#A1A1A1"/>
</svg>
