<svg width="18" height="18" viewBox="0 0 18 18" fill="none" xmlns="http://www.w3.org/2000/svg">
<path fill-rule="evenodd" clip-rule="evenodd" d="M11.0625 3C11.0625 2.68934 11.3143 2.4375 11.625 2.4375H15C15.3107 2.4375 15.5625 2.68934 15.5625 3V6.375C15.5625 6.68566 15.3107 6.9375 15 6.9375C14.6893 6.9375 14.4375 6.68566 14.4375 6.375V4.358L10.8977 7.89775C10.6781 8.11742 10.3219 8.11742 10.1023 7.89775C9.88258 7.67808 9.88258 7.32192 10.1023 7.10225L13.642 3.5625H11.625C11.3143 3.5625 11.0625 3.31066 11.0625 3ZM7.89775 10.1023C8.11742 10.3219 8.11742 10.6781 7.89775 10.8977L4.358 14.4375H6.375C6.68566 14.4375 6.9375 14.6893 6.9375 15C6.9375 15.3107 6.68566 15.5625 6.375 15.5625H3C2.85082 15.5625 2.70774 15.5032 2.60225 15.3977C2.49676 15.2923 2.4375 15.1492 2.4375 15L2.4375 11.625C2.4375 11.3143 2.68934 11.0625 3 11.0625C3.31066 11.0625 3.5625 11.3143 3.5625 11.625L3.5625 13.642L7.10225 10.1023C7.32192 9.88258 7.67808 9.88258 7.89775 10.1023Z" fill="#212325"/>
</svg>
