<svg width="22" height="22" viewBox="0 0 22 22" fill="none" xmlns="http://www.w3.org/2000/svg">
<path d="M11 5.90353V8.95603" stroke="white" stroke-width="1.5" stroke-miterlimit="10" stroke-linecap="round"/>
<path d="M11.0177 1.8327C7.64433 1.8327 4.91266 4.56437 4.91266 7.9377V9.8627C4.91266 10.486 4.65599 11.421 4.33516 11.9527L3.17099 13.896C2.45599 15.0969 2.95099 16.4352 4.27099 16.8752C8.65266 18.3327 13.3918 18.3327 17.7735 16.8752C19.011 16.4627 19.5427 15.0144 18.8735 13.896L17.7093 11.9527C17.3885 11.421 17.1318 10.4769 17.1318 9.8627V7.9377C17.1227 4.5827 14.3727 1.8327 11.0177 1.8327Z" stroke="white" stroke-width="1.5" stroke-miterlimit="10" stroke-linecap="round"/>
<path d="M14.0561 17.251C14.0561 18.9285 12.6811 20.3035 11.0036 20.3035C10.1694 20.3035 9.39941 19.9552 8.84941 19.4052C8.29941 18.8552 7.95108 18.0852 7.95108 17.251" stroke="white" stroke-width="1.5" stroke-miterlimit="10"/>
</svg>
