<svg width="10" height="10" viewBox="0 0 10 10" fill="none" xmlns="http://www.w3.org/2000/svg">
<path fill-rule="evenodd" clip-rule="evenodd" d="M0.359374 0.329634C0.632492 0.0723947 1.01328 0 1.41538 0H3.27692C3.67903 0 4.05982 0.0723947 4.33293 0.329634C4.61193 0.592407 4.69231 0.965145 4.69231 1.35385V8.64615C4.69231 9.03486 4.61193 9.40759 4.33293 9.67037C4.05982 9.92761 3.67903 10 3.27692 10H1.41538C1.01328 10 0.632492 9.92761 0.359374 9.67037C0.0803805 9.40759 0 9.03486 0 8.64615V1.35385C0 0.965145 0.0803805 0.592407 0.359374 0.329634ZM0.88678 0.889597C0.835004 0.938363 0.769231 1.05024 0.769231 1.35385V8.64615C0.769231 8.94976 0.835004 9.06164 0.88678 9.1104C0.944431 9.1647 1.07903 9.23077 1.41538 9.23077H3.27692C3.61328 9.23077 3.74788 9.1647 3.80553 9.1104C3.8573 9.06164 3.92308 8.94976 3.92308 8.64615V1.35385C3.92308 1.05024 3.8573 0.938362 3.80553 0.889597C3.74788 0.835298 3.61328 0.769231 3.27692 0.769231H1.41538C1.07903 0.769231 0.944431 0.835298 0.88678 0.889597Z" fill="white"/>
<path fill-rule="evenodd" clip-rule="evenodd" d="M5.66945 0.329125C5.94277 0.0726963 6.32271 0 6.723 0H8.58454C8.98664 0 9.36743 0.0723947 9.64055 0.329634C9.91954 0.592407 9.99992 0.965145 9.99992 1.35385V8.64615C9.99992 9.03486 9.91954 9.40759 9.64055 9.67037C9.36743 9.92761 8.98664 10 8.58454 10H6.723C6.3209 10 5.94011 9.92761 5.66699 9.67037C5.388 9.40759 5.30762 9.03486 5.30762 8.64615V1.35385C5.30762 0.963533 5.39002 0.591303 5.66945 0.329125ZM6.19578 0.890105C6.14317 0.939467 6.07685 1.05185 6.07685 1.35385V8.64615C6.07685 8.94976 6.14262 9.06164 6.1944 9.1104C6.25205 9.1647 6.38664 9.23077 6.723 9.23077H8.58454C8.9209 9.23077 9.05549 9.1647 9.11314 9.1104C9.16492 9.06164 9.23069 8.94976 9.23069 8.64615V1.35385C9.23069 1.05024 9.16492 0.938363 9.11314 0.889597C9.05549 0.835298 8.9209 0.769231 8.58454 0.769231H6.723C6.38995 0.769231 6.25452 0.834996 6.19578 0.890105Z" fill="white"/>
</svg>
