<svg width="10" height="10" viewBox="0 0 10 10" fill="none" xmlns="http://www.w3.org/2000/svg">
<path fill-rule="evenodd" clip-rule="evenodd" d="M0.862651 0.862651C1.4893 0.236001 2.4236 0 3.61538 0H6.38462C7.5764 0 8.5107 0.236001 9.13735 0.862651C9.764 1.4893 10 2.4236 10 3.61538V6.38462C10 7.5764 9.764 8.5107 9.13735 9.13735C8.5107 9.764 7.5764 10 6.38462 10H3.61538C2.4236 10 1.4893 9.764 0.862651 9.13735C0.236001 8.5107 0 7.5764 0 6.38462V3.61538C0 2.4236 0.236001 1.4893 0.862651 0.862651ZM1.40658 1.40658C0.994769 1.81839 0.769231 2.49947 0.769231 3.61538V6.38462C0.769231 7.50053 0.994769 8.18161 1.40658 8.59342C1.81839 9.00523 2.49947 9.23077 3.61538 9.23077H6.38462C7.50053 9.23077 8.18161 9.00523 8.59342 8.59342C9.00523 8.18161 9.23077 7.50053 9.23077 6.38462V3.61538C9.23077 2.49947 9.00523 1.81839 8.59342 1.40658C8.18161 0.994769 7.50053 0.769231 6.38462 0.769231H3.61538C2.49947 0.769231 1.81839 0.994769 1.40658 1.40658Z" fill="white"/>
</svg>
