<svg width="22" height="22" viewBox="0 0 22 22" fill="none" xmlns="http://www.w3.org/2000/svg">
<path d="M20.1667 7.79167C20.1667 11.0825 17.4992 13.75 14.2083 13.75C14.0525 13.75 13.8875 13.7408 13.7317 13.7317C13.5025 10.8258 11.1742 8.49749 8.26832 8.26833C8.25916 8.11249 8.25 7.9475 8.25 7.79167C8.25 4.50084 10.9175 1.83334 14.2083 1.83334C17.4992 1.83334 20.1667 4.50084 20.1667 7.79167Z" stroke="#E1E1E1" stroke-width="1.5" stroke-linecap="round" stroke-linejoin="round"/>
<path d="M13.75 14.2083C13.75 17.4992 11.0825 20.1667 7.79171 20.1667C4.50087 20.1667 1.83337 17.4992 1.83337 14.2083C1.83337 10.9175 4.50087 8.25 7.79171 8.25C7.94754 8.25 8.11253 8.25916 8.26836 8.26832C11.1742 8.49749 13.5026 10.8258 13.7317 13.7317C13.7409 13.8875 13.75 14.0525 13.75 14.2083Z" stroke="#E1E1E1" stroke-width="1.5" stroke-linecap="round" stroke-linejoin="round"/>
<path d="M5.1242 1.83334H2.75004C2.24587 1.83334 1.83337 2.24584 1.83337 2.75V5.12417C1.83337 5.94 2.82337 6.35249 3.40087 5.77499L5.77503 3.40083C6.34336 2.82333 5.94004 1.83334 5.1242 1.83334Z" stroke="#E1E1E1" stroke-width="1.5" stroke-linecap="round" stroke-linejoin="round"/>
<path d="M16.8759 20.1667H19.25C19.7542 20.1667 20.1667 19.7542 20.1667 19.25V16.8758C20.1667 16.06 19.1767 15.6475 18.5992 16.225L16.225 18.5992C15.6567 19.1767 16.06 20.1667 16.8759 20.1667Z" stroke="#E1E1E1" stroke-width="1.5" stroke-linecap="round" stroke-linejoin="round"/>
</svg>
